<svg width="151" height="17" viewBox="0 0 151 17" fill="none" xmlns="http://www.w3.org/2000/svg">
<path d="M10.0827 0.911449C6.5411 0.911449 0.236392 1.34364 0.236392 4.71172C0.236392 9.61482 10.846 9.65953 10.846 12.4613C10.846 13.3108 9.9606 14.0708 7.97607 14.0708C5.19772 14.0708 3.62536 13.9069 1.06074 13.4747C-0.0231235 13.2959 -0.389499 15.3823 0.511174 15.6058C2.19039 16.038 4.81608 16.4106 9.54843 16.4106C13.0901 16.4106 19.2574 15.7847 19.2574 12.4017C19.2574 7.49859 8.72408 7.46879 8.72408 4.86075C8.72408 4.01128 9.60949 3.25122 11.594 3.25122H18.2956C19.6543 3.25122 19.6543 0.911449 18.2956 0.911449H10.0827ZM35.1947 0.911449C31.3478 0.911449 24.8599 1.13499 24.8599 6.32125V11.0604C24.8599 16.2616 31.3478 16.4702 35.1947 16.4702C39.2706 16.4702 41.4536 16.0976 43.1328 15.6655C44.0488 15.4419 43.6671 13.3406 42.5833 13.5343C40.0186 13.9665 38.4615 14.1304 35.6679 14.1304C33.0728 14.1304 32.3858 13.5492 32.3858 11.9993V10.196C32.3858 9.58501 32.5385 9.46579 33.2102 9.46579H38.4768C39.4996 9.46579 39.4996 7.46879 38.4768 7.46879H33.2102C32.5385 7.46879 32.3858 7.34956 32.3858 6.73853V5.39726C32.3858 3.83244 33.0728 3.26613 35.6679 3.26613H42.3085C43.6671 3.26613 43.6671 0.926349 42.3085 0.926349H35.1947V0.911449ZM58.9328 0.911449C55.0858 0.911449 48.5979 1.13499 48.5979 6.32125V11.2691C48.5979 16.0976 54.811 16.351 58.658 16.351C61.9248 16.351 69.0539 16.1871 69.0539 11.6714V10.196C69.0539 8.34806 67.8174 7.85626 65.3596 7.85626H59.9555C59.2228 7.85626 59.2228 9.85327 59.9555 9.85327H61.6042C62.2759 9.85327 62.3523 9.98739 62.3523 10.5835V11.8503C62.3523 13.4151 60.8715 14.2497 58.658 14.2497C56.4445 14.2497 55.6506 13.4002 55.6506 11.8503V5.36746C55.6506 3.80264 56.8108 3.23632 59.406 3.23632H66.0465C67.4052 3.23632 67.4052 0.896545 66.0465 0.896545H58.9328V0.911449ZM73.2214 0.911449C72.2902 0.911449 72.3054 1.28402 72.5344 2.04408L76.5035 13.8026C77.0378 15.2482 78.198 16.202 80.4726 16.202C82.7471 16.202 83.831 15.2333 84.3653 13.9367C84.3653 13.9367 85.9377 9.34656 86.2124 8.5269C86.3956 7.96058 86.8536 7.96058 87.0368 8.5269C87.2658 9.22734 88.8229 13.8026 88.8229 13.8026C89.5861 15.3227 90.3952 16.202 92.7156 16.202C95.4482 16.202 96.6389 15.114 97.0968 13.8026C97.3869 12.9829 99.4935 5.96358 100.791 1.90995C101.051 1.12009 100.974 0.911449 100.242 0.911449H97.8448C97.0968 3.38535 94.7917 10.822 94.7001 11.1349C94.5322 11.7012 94.1048 11.6863 93.8758 11.1349C93.7231 10.7474 91.1432 3.86225 90.7311 2.78923C90.3036 1.71621 89.1282 0.926349 87.7848 0.926349C86.5788 0.926349 85.4492 1.56718 85.0523 2.78923C84.6553 4.01128 82.4876 10.8071 82.3808 11.1349C82.2128 11.7012 81.7396 11.7012 81.5564 11.1349C81.4343 10.7922 79.0834 3.28103 78.3354 0.911449H73.2214ZM115.293 0.911449C111.569 0.911449 105.646 0.881643 105.646 5.38236V14.7266C105.646 15.6655 106.363 16.202 108.79 16.202C111.218 16.202 111.935 15.5462 111.935 14.7266V10.4494C111.935 9.83837 112.088 9.71914 112.759 9.71914H117.69C118.362 9.71914 118.515 9.85327 118.515 10.4494V14.7266C118.515 15.5462 119.232 16.202 121.659 16.202C124.086 16.202 124.804 15.6804 124.804 14.7266V5.38236C124.804 0.881643 119.018 0.911449 115.293 0.911449ZM128.91 0.911449C128.3 0.911449 128.04 1.35854 128.498 1.90995C130.04 3.78773 133.658 8.21393 133.902 8.5269C134.208 8.89947 134.65 9.42108 134.65 10.0023V14.7415C134.65 15.5611 135.444 16.2169 137.871 16.2169C140.299 16.2169 141.153 15.6953 141.153 14.7415V9.59992C141.153 8.98889 141.566 8.66103 141.901 8.25864C142.146 7.94568 145.565 3.84734 147.168 1.90995C147.626 1.34363 147.382 0.911449 146.756 0.911449H143.886C143.886 0.911449 140.207 5.6208 139.917 5.99338C139.627 6.36596 139.047 6.35105 138.757 5.99338C138.467 5.63571 134.925 0.911449 134.925 0.911449H128.91ZM149.565 0.911449C148.771 0.911449 148.13 1.55228 148.13 2.31233C148.13 3.07239 148.771 3.71322 149.565 3.71322C150.343 3.71322 151 3.07239 151 2.31233C151 1.53738 150.359 0.911449 149.565 0.911449ZM149.565 1.23931C150.145 1.23931 150.664 1.74602 150.664 2.31233C150.664 2.87865 150.145 3.31083 149.565 3.31083C148.985 3.31083 148.542 2.87865 148.542 2.31233C148.542 1.74602 148.985 1.23931 149.565 1.23931ZM148.954 1.77582C148.908 1.77582 148.893 1.79073 148.893 1.83543V2.69981C148.893 2.75943 148.939 2.75942 149.092 2.75942C149.26 2.75942 149.29 2.74452 149.29 2.69981V1.96956C149.29 1.92485 149.305 1.90995 149.351 1.90995H149.55C149.687 1.90995 149.748 1.98446 149.748 2.04408C149.748 2.1484 149.58 2.17821 149.412 2.17821H149.351C149.275 2.17821 149.29 2.40175 149.351 2.44646C149.519 2.58059 149.672 2.71472 149.763 2.77433C149.794 2.80413 149.855 2.77433 149.901 2.77433H150.313C150.359 2.77433 150.359 2.74452 150.313 2.71471L149.763 2.31233C149.901 2.31233 150.313 2.32723 150.313 2.04408C150.313 1.85034 150.053 1.77582 149.702 1.77582H148.954ZM115.293 2.90846C117.812 2.90846 118.515 3.56419 118.515 5.1141V6.97698C118.515 7.63272 118.377 7.70723 117.767 7.70723H112.775C112.103 7.70723 111.95 7.5731 111.95 6.97698V5.1141C111.95 3.56419 112.775 2.90846 115.293 2.90846Z" fill="#323941"/>
</svg>
